<svg version="1.1" id="Layer_1" xmlns="http://www.w3.org/2000/svg" xmlns:xlink="http://www.w3.org/1999/xlink" x="0px" y="0px"
	 width="100%" viewBox="0 0 300 220" enable-background="new 0 0 300 220" xml:space="preserve">
<path fill="#000000" opacity="1.000000" stroke="none" 
	d="
M207.000000,221.000000 
	C138.363068,221.000000 69.726128,221.000000 1.044596,221.000000 
	C1.044596,147.728165 1.044596,74.456306 1.044596,1.092222 
	C100.895149,1.092222 200.790405,1.092222 300.842834,1.092222 
	C300.842834,74.333092 300.842834,147.666504 300.842834,221.000000 
	C279.585632,221.000000 258.261475,221.000000 236.254883,220.627411 
	C238.150589,219.504166 240.725311,218.741470 243.307495,218.005005 
	C252.817474,215.292725 262.313568,212.552490 270.460571,206.007996 
	C275.779724,200.208710 281.894257,195.048584 285.485931,188.503937 
	C292.431244,175.848343 295.852814,161.908310 292.808960,147.387314 
	C291.478668,141.040985 288.377899,135.065750 286.038910,128.570374 
	C284.329010,126.138802 282.661377,124.058815 280.987823,121.998604 
	C280.981903,122.018379 281.021881,122.008057 281.000916,121.653275 
	C278.226959,118.711647 275.473969,116.124802 272.692566,113.423485 
	C272.664124,113.309013 272.433258,113.260468 272.262512,112.972946 
	C267.938446,110.205246 264.003998,107.195244 259.580994,105.367989 
	C252.799271,102.566322 245.681183,100.578865 238.304367,98.206375 
	C236.377762,97.803070 234.852646,97.439255 233.147766,96.805176 
	C225.327087,93.990494 217.686172,91.446075 209.875336,88.594376 
	C207.127930,87.180855 204.550446,86.074638 201.970139,85.000534 
	C201.967300,85.032661 202.031540,85.026833 201.975220,84.756287 
	C201.610550,84.313271 201.302170,84.140793 200.987701,83.993576 
	C200.981583,84.018829 201.031723,84.005157 200.970947,83.738388 
	C200.600006,83.313477 200.289825,83.155319 199.979523,83.011246 
	C199.979385,83.025322 200.006851,83.019165 199.924530,82.736954 
	C199.237213,81.971809 198.632217,81.488869 198.032410,80.987640 
	C198.037598,80.969353 197.999619,80.971024 197.937790,80.707657 
	C197.585190,80.241089 197.294418,80.037895 196.935608,79.634674 
	C196.702347,79.178505 196.467896,79.037529 196.053543,78.749565 
	C195.625443,78.301704 195.307999,78.115997 194.994431,77.967590 
	C194.998306,78.004898 195.072922,77.997177 195.025757,77.658081 
	C194.330658,76.192650 193.682709,75.066322 193.018677,73.969391 
	C193.002579,73.998787 193.064682,74.024040 193.046326,73.566223 
	C192.962936,70.034416 192.897903,66.960426 192.896683,63.735020 
	C192.960495,63.583603 192.968384,63.255070 193.275574,63.070896 
	C193.658188,62.206554 193.733643,61.526386 193.992889,60.550560 
	C198.908585,51.340870 205.731689,45.966484 216.414200,46.939018 
	C220.614059,47.321373 224.832779,47.496597 229.273422,47.856270 
	C229.503937,47.946396 229.984512,48.065178 229.993362,48.037937 
	C230.002213,48.010696 229.948669,48.031067 230.138519,48.361015 
	C240.140274,50.775158 248.033783,56.436184 255.909897,62.213070 
	C257.717865,63.539173 260.078918,64.111290 262.557465,65.021103 
	C265.943726,62.948101 268.957947,60.884369 272.331848,58.869888 
	C277.363861,55.173672 282.126709,51.531700 286.631226,47.594185 
	C287.516998,46.819908 288.173798,44.269608 287.632935,43.614742 
	C282.931122,37.921749 277.931976,32.474327 273.008514,26.981602 
	C272.995789,27.009321 273.056488,27.015392 272.992554,26.741886 
	C272.611084,26.303988 272.293549,26.139593 271.973755,26.001526 
	C271.971497,26.027851 272.021240,26.009981 271.966675,25.753704 
	C271.628967,25.310547 271.345795,25.123669 270.947968,24.662348 
	C270.213593,23.925488 269.593903,23.463068 268.974304,23.012207 
	C268.974365,23.023764 268.997437,23.024706 268.947052,22.757687 
	C268.591187,22.327011 268.285675,22.163357 267.980103,22.011286 
	C267.980011,22.022867 268.003174,22.022049 267.902344,21.692774 
	C265.562469,19.876610 263.323425,18.389723 260.914551,16.593754 
	C258.209442,15.262283 255.674118,14.239894 252.758759,13.141502 
	C249.842361,12.469039 247.306030,11.872575 244.623322,11.212217 
	C244.153015,11.074594 243.840118,11.097723 243.148987,11.099239 
	C239.473267,10.402516 236.656906,7.238589 232.612885,9.133589 
	C231.911819,9.055471 231.508408,9.033978 230.954086,8.684798 
	C228.852371,8.312599 226.901596,8.268085 224.674744,8.162443 
	C223.838989,8.165079 223.279266,8.228842 222.388412,8.211403 
	C221.155243,8.184917 220.253235,8.239635 219.137512,8.201578 
	C218.618561,8.080741 218.317123,8.030057 217.790466,7.587621 
	C205.044907,7.208150 192.528427,7.197813 179.678864,7.122937 
	C178.896957,7.097592 178.448120,7.136786 177.535645,7.099936 
	C147.050339,7.076594 117.028664,7.129295 86.748367,7.159338 
	C86.315208,7.419859 86.140671,7.703041 85.598709,8.021169 
	C84.497116,8.112369 83.762939,8.168621 82.715462,8.065774 
	C81.239677,7.954064 80.077187,8.001454 78.533264,8.065427 
	C77.138969,8.145531 76.126114,8.209052 74.650887,8.190641 
	C70.795715,8.067910 67.402916,8.027110 63.864128,7.673355 
	C62.419777,7.653618 61.121414,7.946836 59.487534,8.177994 
	C58.469856,8.098269 57.787701,8.080606 56.958549,7.745441 
	C55.839355,7.639352 54.867165,7.850763 53.680847,8.061729 
	C53.466721,8.061285 53.041603,8.009610 52.972019,7.761333 
	C52.587688,7.678490 52.272945,7.843925 51.510803,8.042010 
	C48.083076,8.140268 45.102749,8.205875 41.717949,8.188977 
	C40.223076,8.054828 39.132671,8.003182 37.808350,7.584218 
	C30.531748,7.068932 23.489149,6.834237 16.446327,6.827347 
	C14.408549,6.825354 12.370133,7.477201 10.047691,7.947162 
	C9.471562,8.336822 9.179753,8.608620 8.932321,8.908377 
	C8.976697,8.936337 8.884089,8.869127 8.522621,8.879034 
	C7.768407,9.155448 7.375662,9.421956 6.842423,9.640339 
	C6.459548,9.682508 6.397512,9.842580 6.356426,10.073029 
	C6.197032,10.073628 5.935145,10.255405 5.740777,10.228321 
	C5.457471,10.297173 5.368534,10.393108 5.279597,10.489045 
	C5.488290,10.596648 5.696984,10.704250 6.010075,11.243436 
	C6.075292,13.150801 6.036110,14.626583 5.677901,16.257326 
	C5.305766,17.586010 5.252658,18.759735 5.119847,20.403473 
	C5.022288,25.969141 4.878615,31.068569 5.031261,36.159111 
	C5.131301,39.495316 5.659977,42.818668 6.230420,46.460907 
	C7.700693,47.176064 8.943019,47.944061 10.172883,47.924599 
	C25.775219,47.677692 41.375450,47.301239 56.976990,46.997726 
	C60.902264,46.921364 64.830284,46.986298 69.050156,46.986298 
	C69.050156,49.503284 69.050102,51.315376 69.050171,53.127468 
	C69.052223,104.783813 69.050934,156.440170 69.060677,208.096512 
	C69.061882,214.479553 69.575035,215.104156 75.858681,214.970322 
	C86.143028,214.751297 96.423088,214.110413 106.705238,214.104172 
	C111.665764,214.101166 113.088699,212.383194 113.073639,207.457779 
	C112.915657,155.801071 112.974220,104.143669 113.031509,52.486515 
	C113.033592,50.609543 113.639320,48.733242 114.431595,46.926388 
	C128.594879,46.937737 142.290298,46.879326 156.225861,46.935066 
	C156.613266,47.348557 156.760544,47.647896 156.594727,48.159630 
	C152.569992,57.803448 152.306717,67.731590 153.214355,77.527725 
	C153.892319,84.844887 155.416794,92.325790 161.010101,97.996185 
	C161.005585,97.995392 161.005081,97.986801 161.015289,98.344467 
	C164.953278,105.043015 169.657150,110.516960 177.025208,112.994377 
	C177.030258,112.968338 176.978500,112.979919 177.090714,113.309982 
	C185.520035,119.865982 194.874268,123.728333 205.332458,125.995651 
	C217.778976,130.706085 229.891312,135.257217 242.357956,139.878250 
	C245.438858,141.982910 248.165451,144.017670 250.940948,146.442017 
	C256.566071,160.272202 253.200150,168.806961 244.662598,175.587799 
	C241.011261,178.487839 236.189301,179.913971 231.694153,182.061890 
	C231.489059,182.113937 231.084045,182.240646 230.620331,182.147034 
	C219.305984,182.214996 208.589279,181.552261 198.435989,177.142792 
	C197.756241,176.847580 196.818405,177.146683 195.783951,177.079102 
	C194.750778,176.685516 193.934280,176.382187 192.984360,175.767670 
	C191.852005,175.033051 190.853043,174.609604 189.585815,174.030502 
	C188.584915,173.576340 187.852310,173.277832 187.019531,172.724808 
	C186.614838,172.288422 186.310303,172.106537 186.010925,171.958542 
	C186.016098,171.992432 186.083054,171.977661 185.999664,171.703613 
	C185.576035,171.335648 185.235809,171.241745 184.588669,170.989136 
	C181.450806,168.662292 178.574539,166.550278 175.801773,164.310089 
	C173.072922,162.105392 169.474121,159.117950 166.708115,161.417923 
	C161.253082,165.953888 156.840393,171.743408 152.004822,177.014160 
	C152.013046,177.013840 152.015015,176.997498 151.659058,177.009552 
	C150.390976,177.678421 149.454926,178.304703 148.570862,178.997360 
	C144.770981,181.974609 143.681351,184.841995 148.003738,188.603027 
	C152.565582,192.572418 156.252213,197.602798 161.007324,201.283188 
	C170.208344,208.404633 180.353836,213.925613 192.226105,216.424225 
	C197.244614,217.507812 202.043716,218.264252 207.026031,219.409668 
	C207.139511,220.199081 207.069763,220.599548 207.000000,221.000000 
z"/>
<path fill="#2099A6" opacity="1.000000" stroke="none" 
	d="
M207.468658,221.000000 
	C207.069763,220.599548 207.139511,220.199081 207.438843,219.400253 
	C209.709732,218.765854 211.751038,218.529831 214.218994,218.325745 
	C234.383987,219.591858 252.669144,215.286591 269.309845,204.157745 
	C269.692383,204.842743 269.904236,205.432175 270.116119,206.021606 
	C262.313568,212.552490 252.817474,215.292725 243.307495,218.005005 
	C240.725311,218.741470 238.150589,219.504166 235.786224,220.627411 
	C226.645767,221.000000 217.291550,221.000000 207.468658,221.000000 
z"/>
<path fill="#02C0CD" opacity="1.000000" stroke="none" 
	d="
M269.139191,204.062195 
	C252.669144,215.286591 234.383987,219.591858 213.810730,218.254852 
	C205.948471,216.797348 198.921112,215.442673 191.572998,213.928925 
	C178.044281,209.433899 165.903458,203.380081 155.712814,193.565399 
	C150.530869,188.574631 147.191284,183.887634 152.015015,176.997498 
	C152.015015,176.997498 152.013046,177.013840 152.363632,176.992813 
	C155.158066,175.072769 157.826065,173.399261 160.004807,171.233566 
	C167.305542,163.976532 169.485229,163.377823 177.711456,169.251740 
	C183.700668,173.528320 189.481216,177.870132 197.007324,179.252960 
	C197.049484,179.440781 197.123886,179.818542 197.114532,180.217941 
	C197.792206,181.937302 198.675903,184.441483 199.131165,184.365875 
	C200.821594,184.085114 202.370987,182.955154 204.377396,182.118484 
	C205.860794,182.095657 206.940140,182.098450 208.177704,182.255646 
	C208.556580,182.607208 208.788727,182.789749 209.027252,182.929230 
	C209.022125,182.900772 209.079788,182.896606 209.270660,183.196396 
	C211.970810,183.683609 214.480072,183.871033 217.435516,184.072113 
	C220.263931,184.123093 222.646194,184.160400 225.145874,184.231750 
	C225.263290,184.265778 225.627899,184.272385 225.627899,184.272385 
	C225.627899,184.272385 225.980911,184.179016 226.400558,184.158661 
	C228.220016,184.093842 229.619812,184.049408 231.365448,184.171646 
	C237.996368,185.582855 243.214249,183.212387 246.072693,177.648315 
	C248.442245,174.910309 250.889801,172.625656 252.709152,169.918793 
	C257.896851,162.200394 256.927277,151.034637 250.892044,146.052444 
	C248.165451,144.017670 245.438858,141.982910 242.261398,139.557068 
	C240.309189,137.983383 238.979340,136.373550 237.277496,135.690384 
	C228.891617,132.324066 220.407135,129.203415 212.039307,125.655411 
	C211.778503,124.019760 211.640579,121.706230 211.061050,121.589752 
	C206.092438,120.591095 201.112442,117.060265 195.616882,121.004532 
	C193.601410,120.250046 191.932602,119.598022 190.293381,118.878563 
	C185.848373,116.927650 181.415924,114.948105 176.978500,112.979919 
	C176.978500,112.979919 177.030258,112.968338 176.934555,112.665344 
	C172.198730,107.732834 167.575974,103.085556 162.887939,98.505081 
	C162.480484,98.106979 161.642883,98.149147 161.005081,97.986801 
	C161.005081,97.986801 161.005585,97.995392 161.016357,97.619766 
	C160.332062,95.125679 159.636978,93.007210 158.904816,90.580917 
	C158.548233,89.507523 158.228729,88.741959 157.876068,87.792175 
	C157.842926,87.607956 157.829681,87.233849 157.841858,86.875854 
	C157.290390,85.355469 156.726715,84.193085 156.125122,82.685516 
	C156.048248,81.878975 156.009323,81.417633 156.248138,80.772125 
	C156.762436,79.063087 157.516434,77.398705 157.149216,76.036598 
	C155.171753,68.701782 155.841019,61.711460 158.773300,54.740314 
	C159.460800,53.105862 158.951340,50.967934 158.964935,48.708923 
	C157.932831,47.021244 156.928345,45.686283 155.584839,44.329929 
	C154.793427,44.285625 154.341064,44.262711 153.695480,44.330944 
	C153.245926,44.557854 153.009094,44.721806 152.337387,44.874641 
	C139.595825,44.874119 127.308624,44.912907 114.738632,44.837387 
	C109.460983,45.120270 109.587822,49.343510 109.437836,52.472248 
	C109.176308,57.927834 110.041039,63.426476 110.049423,68.907661 
	C110.117775,113.560623 110.107941,158.213715 110.091705,202.866760 
	C110.089211,209.728699 108.638985,211.459183 101.697075,211.857956 
	C95.051331,212.239746 88.374123,212.140839 81.710854,212.134369 
	C72.488281,212.125427 71.901695,211.502426 71.901665,202.093597 
	C71.901489,153.608368 71.916382,105.123138 71.920815,56.637913 
	C71.921021,54.305771 72.407379,51.788006 71.682770,49.698044 
	C71.061882,47.907230 69.088272,45.357605 67.609879,45.286533 
	C55.987709,44.727802 44.336823,44.808975 32.702724,44.441551 
	C24.099737,44.169857 15.508666,43.520790 6.857652,42.755417 
	C6.763401,42.282101 6.723783,42.093212 6.755793,41.536007 
	C6.896816,40.420624 6.966211,39.673565 7.187149,38.605370 
	C7.247067,36.202427 7.155443,34.120613 7.066046,31.602552 
	C7.095957,29.141703 7.123641,27.117104 7.295906,24.719341 
	C7.921688,19.187162 8.402889,14.028145 8.884090,8.869127 
	C8.884089,8.869127 8.976697,8.936337 9.212321,8.911589 
	C9.972402,8.714923 10.496857,8.543005 11.417694,8.353130 
	C12.871922,8.329740 13.929768,8.324305 15.289446,8.458900 
	C16.691599,8.808053 17.791920,9.017175 19.285973,9.364780 
	C24.827785,9.673689 29.980471,10.043594 35.121883,9.924982 
	C37.466866,9.870884 39.789597,8.852500 42.122421,8.271482 
	C45.102749,8.205875 48.083076,8.140268 51.782028,8.055067 
	C52.680973,8.026853 52.861290,8.018231 53.041603,8.009610 
	C53.041603,8.009610 53.466721,8.061285 53.928864,8.212067 
	C55.295853,8.262879 56.200699,8.162911 57.105545,8.062943 
	C57.787701,8.080606 58.469856,8.098269 59.503807,8.407639 
	C59.855606,8.699345 59.916214,9.155525 60.302193,9.304467 
	C65.496536,9.059797 70.304901,8.666186 75.113258,8.272573 
	C76.126114,8.209052 77.138969,8.145531 78.839813,8.245834 
	C80.675369,8.677731 81.822945,8.945802 83.352051,9.352449 
	C87.826454,9.369960 91.919342,9.248894 96.341217,9.138881 
	C97.108986,9.142798 97.547768,9.135662 98.367523,9.279978 
	C107.549255,9.623673 116.349884,9.946836 125.150795,9.954672 
	C129.769958,9.958785 134.389618,9.410533 139.445435,9.114471 
	C141.918182,9.115124 143.954559,9.113024 146.371063,9.264435 
	C154.832642,9.316412 162.914078,9.214880 171.433655,9.115734 
	C173.916321,9.116621 175.960846,9.115123 178.384079,9.266630 
	C186.511002,9.321530 194.259232,9.223425 202.406494,9.132059 
	C203.869705,9.133079 204.933884,9.127361 206.374146,9.272676 
	C210.950562,9.047256 215.150879,8.670803 219.351212,8.294350 
	C220.253235,8.239635 221.155243,8.184917 222.563354,8.395530 
	C223.679398,8.835025 224.289368,9.009192 225.252319,9.203964 
	C227.438538,9.153876 229.271774,9.083180 231.105011,9.012484 
	C231.508408,9.033978 231.911819,9.055471 232.777466,9.295263 
	C233.467590,9.718385 233.705948,9.910199 234.131927,10.343275 
	C235.205078,11.061670 236.101105,11.525795 237.236450,12.136316 
	C237.990829,12.502872 238.505875,12.723032 239.231552,13.067989 
	C241.283737,13.174403 243.125290,13.156017 245.304886,13.152546 
	C246.094086,13.169578 246.545212,13.171697 247.159943,13.318237 
	C247.547562,13.650620 247.780914,13.826196 248.354645,14.018559 
	C249.127701,14.078587 249.569702,14.109443 250.164001,14.289822 
	C250.524872,14.633916 250.741776,14.818725 251.294037,15.022093 
	C252.058365,15.063583 252.495682,15.076755 252.956360,15.117129 
	C252.979736,15.144334 253.025345,15.199712 253.117462,15.384226 
	C253.807816,15.708998 254.406021,15.849255 255.274933,16.067953 
	C256.041077,16.410553 256.536530,16.674713 257.173340,17.248810 
	C258.746429,21.704544 261.744080,22.921724 265.847412,22.135918 
	C265.868286,22.161722 265.910858,22.212648 265.964294,22.328869 
	C266.338470,22.565300 266.659271,22.685513 267.259003,22.640064 
	C267.693024,22.323622 267.848114,22.172836 268.003174,22.022049 
	C268.003174,22.022049 267.980011,22.022867 268.055695,22.261190 
	C268.420074,22.674578 268.708740,22.849642 268.997437,23.024706 
	C268.997437,23.024706 268.974365,23.023764 268.915833,23.375599 
	C268.882477,24.217136 268.907623,24.706837 268.947571,25.444332 
	C269.635925,26.031248 270.309479,26.370373 271.254517,26.552319 
	C271.691071,26.266754 271.856171,26.138367 272.021240,26.009981 
	C272.021240,26.009981 271.971497,26.027851 272.086121,26.236774 
	C272.486023,26.635595 272.771240,26.825497 273.056488,27.015394 
	C273.056488,27.015392 272.995789,27.009321 272.984406,27.312962 
	C273.005676,28.058336 273.038330,28.500069 272.947205,29.261581 
	C271.574493,35.676987 277.417603,34.752895 280.312469,37.019012 
	C280.512726,37.092785 280.909943,37.248985 280.903076,37.415665 
	C280.896179,37.582348 280.876160,37.919430 280.595764,38.115395 
	C279.678040,39.548893 278.701843,40.725986 278.468323,42.035522 
	C277.823669,45.650425 277.489471,49.320690 277.026428,52.991241 
	C277.020355,53.013420 276.977966,53.031292 276.669861,53.086273 
	C275.572968,53.753185 274.784119,54.365116 274.004303,54.989548 
	C274.013336,55.002052 273.982666,55.001556 273.810181,55.154922 
	C273.414246,55.520527 273.206299,55.746979 273.015503,56.002258 
	C273.017151,56.016876 272.988159,56.011967 272.635040,56.061768 
	C270.847717,57.065083 269.444611,58.070091 267.972076,58.960220 
	C265.690735,60.339237 263.362000,61.639862 260.798157,62.797058 
	C259.650696,61.515522 258.758392,60.410656 257.722382,58.977322 
	C257.220215,58.089130 256.957245,57.146530 256.488403,57.029655 
	C252.362473,56.001057 251.147491,48.354900 244.679367,51.861763 
	C240.616104,50.459148 236.892792,49.160339 232.945404,47.582344 
	C222.010361,40.770554 201.237656,44.894913 194.004318,54.776924 
	C188.767639,61.931156 187.176941,69.530792 190.813995,77.699738 
	C192.277023,80.985756 194.411484,84.312317 199.328735,83.418961 
	C199.721146,83.226593 199.863998,83.122879 200.006851,83.019165 
	C200.006851,83.019165 199.979385,83.025322 200.077713,83.249481 
	C200.461273,83.650818 200.746490,83.827988 201.031723,84.005157 
	C201.031723,84.005157 200.981583,84.018829 201.085342,84.234055 
	C201.469910,84.641800 201.750717,84.834320 202.031540,85.026840 
	C202.031540,85.026833 201.967300,85.032661 202.068817,85.329651 
	C204.788803,87.051643 207.407303,88.476646 210.295502,90.128357 
	C218.152664,92.595177 225.740097,94.835304 233.327530,97.075439 
	C234.852646,97.439255 236.377762,97.803070 238.508240,98.490326 
	C239.653137,99.189316 240.152328,99.649872 240.738190,99.927696 
	C249.856964,104.251991 258.963837,108.603226 268.141632,112.799065 
	C269.383026,113.366592 270.993622,113.126564 272.433258,113.260468 
	C272.433258,113.260468 272.664124,113.309013 272.640289,113.775269 
	C275.418274,116.830368 278.220062,119.419212 281.021881,122.008057 
	C281.021881,122.008057 280.981903,122.018379 280.967773,122.357468 
	C281.022491,123.411911 281.091339,124.127251 281.128876,125.260147 
	C280.711212,129.513992 281.878510,132.279541 286.316833,133.219620 
	C287.204620,135.012909 288.118195,136.465256 288.514191,138.047180 
	C294.967529,163.827103 290.538757,186.443359 269.139191,204.062195 
z"/>
<path fill="#22A0AA" opacity="1.000000" stroke="none" 
	d="
M6.912285,43.039845 
	C15.508666,43.520790 24.099737,44.169857 32.702724,44.441551 
	C44.336823,44.808975 55.987709,44.727802 67.609879,45.286533 
	C69.088272,45.357605 71.061882,47.907230 71.682770,49.698044 
	C72.407379,51.788006 71.921021,54.305771 71.920815,56.637913 
	C71.916382,105.123138 71.901489,153.608368 71.901665,202.093597 
	C71.901695,211.502426 72.488281,212.125427 81.710854,212.134369 
	C88.374123,212.140839 95.051331,212.239746 101.697075,211.857956 
	C108.638985,211.459183 110.089211,209.728699 110.091705,202.866760 
	C110.107941,158.213715 110.117775,113.560623 110.049423,68.907661 
	C110.041039,63.426476 109.176308,57.927834 109.437836,52.472248 
	C109.587822,49.343510 109.460983,45.120270 114.611282,45.078648 
	C114.499054,45.908360 114.231392,46.382496 113.963722,46.856628 
	C113.639320,48.733242 113.033592,50.609543 113.031509,52.486515 
	C112.974220,104.143669 112.915657,155.801071 113.073639,207.457779 
	C113.088699,212.383194 111.665764,214.101166 106.705238,214.104172 
	C96.423088,214.110413 86.143028,214.751297 75.858681,214.970322 
	C69.575035,215.104156 69.061882,214.479553 69.060677,208.096512 
	C69.050934,156.440170 69.052223,104.783813 69.050171,53.127468 
	C69.050102,51.315376 69.050156,49.503284 69.050156,46.986298 
	C64.830284,46.986298 60.902264,46.921364 56.976990,46.997726 
	C41.375450,47.301239 25.775219,47.677692 10.172883,47.924599 
	C8.943019,47.944061 7.700693,47.176064 6.290853,46.130753 
	C6.152488,45.266850 6.187429,45.046230 6.341985,44.631851 
	C6.586759,43.999050 6.711920,43.560001 6.847415,43.092827 
	C6.857748,43.064697 6.912285,43.039845 6.912285,43.039845 
z"/>
<path fill="#15A8B3" opacity="1.000000" stroke="none" 
	d="
M199.079193,83.507599 
	C194.411484,84.312317 192.277023,80.985756 190.813995,77.699738 
	C187.176941,69.530792 188.767639,61.931156 194.004318,54.776924 
	C201.237656,44.894913 222.010361,40.770554 232.541138,47.613590 
	C231.556854,47.959702 230.752762,47.995384 229.948669,48.031067 
	C229.948669,48.031067 230.002213,48.010696 229.897461,47.946800 
	C229.560654,47.736996 229.310715,47.698082 229.042908,47.766151 
	C224.832779,47.496597 220.614059,47.321373 216.414200,46.939018 
	C205.731689,45.966484 198.908585,51.340870 193.833099,60.831341 
	C193.315796,62.023544 193.142090,62.639309 192.968384,63.255070 
	C192.968384,63.255070 192.960495,63.583603 192.693680,64.038147 
	C190.458130,67.815773 190.967056,70.973061 193.064682,74.024040 
	C193.064682,74.024040 193.002579,73.998787 193.008667,74.323792 
	C193.700821,75.764931 194.386871,76.881058 195.072922,77.997177 
	C195.072922,77.997177 194.998306,78.004898 195.154968,78.183723 
	C195.595825,78.578941 195.880005,78.795334 196.164200,79.011719 
	C196.467896,79.037529 196.702347,79.178505 197.042480,79.871216 
	C197.478134,80.528862 197.738876,80.749947 197.999619,80.971024 
	C197.999619,80.971024 198.037598,80.969353 198.103485,81.321548 
	C198.472656,82.285027 198.775925,82.896309 199.079193,83.507599 
z"/>
<path fill="#289BA8" opacity="1.000000" stroke="none" 
	d="
M269.309845,204.157745 
	C290.538757,186.443359 294.967529,163.827103 288.514191,138.047180 
	C288.118195,136.465256 287.204620,135.012909 286.283081,132.862732 
	C285.871277,131.287338 285.708221,130.349472 285.679199,129.289246 
	C285.813232,129.166870 286.081146,128.921982 286.081146,128.921982 
	C288.377899,135.065750 291.478668,141.040985 292.808960,147.387314 
	C295.852814,161.908310 292.431244,175.848343 285.485931,188.503937 
	C281.894257,195.048584 275.779724,200.208710 270.460571,206.007996 
	C269.904236,205.432175 269.692383,204.842743 269.309845,204.157745 
z"/>
<path fill="#1DA3AE" opacity="1.000000" stroke="none" 
	d="
M151.659058,177.009552 
	C147.191284,183.887634 150.530869,188.574631 155.712814,193.565399 
	C165.903458,203.380081 178.044281,209.433899 191.522888,214.125031 
	C191.864578,215.019180 191.935638,215.558136 192.006683,216.097076 
	C180.353836,213.925613 170.208344,208.404633 161.007324,201.283188 
	C156.252213,197.602798 152.565582,192.572418 148.003738,188.603027 
	C143.681351,184.841995 144.770981,181.974609 148.570862,178.997360 
	C149.454926,178.304703 150.390976,177.678421 151.659058,177.009552 
z"/>
<path fill="#1DA3AE" opacity="1.000000" stroke="none" 
	d="
M196.965149,179.065125 
	C189.481216,177.870132 183.700668,173.528320 177.711456,169.251740 
	C169.485229,163.377823 167.305542,163.976532 160.004807,171.233566 
	C157.826065,173.399261 155.158066,175.072769 152.355408,176.993134 
	C156.840393,171.743408 161.253082,165.953888 166.708115,161.417923 
	C169.474121,159.117950 173.072922,162.105392 175.801773,164.310089 
	C178.574539,166.550278 181.450806,168.662292 184.773315,171.147858 
	C185.515854,171.670822 185.788574,171.841614 186.083054,171.977661 
	C186.083054,171.977661 186.016098,171.992432 186.171387,172.159821 
	C186.591003,172.544571 186.855362,172.761948 187.119705,172.979309 
	C187.852310,173.277832 188.584915,173.576340 189.784973,174.286316 
	C191.207535,175.158127 192.162659,175.618484 193.117767,176.078842 
	C193.934280,176.382187 194.750778,176.685516 195.911392,177.312469 
	C196.492050,178.112442 196.728592,178.588791 196.965149,179.065125 
z"/>
<path fill="#19AAB3" opacity="1.000000" stroke="none" 
	d="
M145.990936,9.110924 
	C143.954559,9.113024 141.918182,9.115124 138.977173,9.094717 
	C124.710533,9.090983 111.348541,9.109755 97.986549,9.128526 
	C97.547768,9.135662 97.108986,9.142798 95.908051,9.116630 
	C92.435600,8.734399 89.725296,8.385472 87.482651,8.028861 
	C115.515129,8.014945 143.080002,8.029536 170.644714,7.966640 
	C173.096817,7.961044 175.547791,7.451481 177.999283,7.175981 
	C178.448120,7.136786 178.896957,7.097592 180.056702,7.284682 
	C182.576126,7.674405 184.383453,7.963122 186.193390,7.980565 
	C196.474762,8.079647 206.756760,8.113902 216.662094,8.318163 
	C212.856461,8.684625 209.427261,8.903134 205.998077,9.121643 
	C204.933884,9.127361 203.869705,9.133079 201.938629,9.110397 
	C193.382950,9.092539 185.694168,9.103081 178.005386,9.113624 
	C175.960846,9.115123 173.916321,9.116621 170.966888,9.096371 
	C162.038315,9.086722 154.014618,9.098823 145.990936,9.110924 
z"/>
<path fill="#2498A0" opacity="1.000000" stroke="none" 
	d="
M250.940948,146.442017 
	C256.927277,151.034637 257.896851,162.200394 252.709152,169.918793 
	C250.889801,172.625656 248.442245,174.910309 245.749481,177.775330 
	C240.778030,179.445206 236.338638,180.727509 231.899246,182.009827 
	C236.189301,179.913971 241.011261,178.487839 244.662598,175.587799 
	C253.200150,168.806961 256.566071,160.272202 250.940948,146.442017 
z"/>
<path fill="#2193A0" opacity="1.000000" stroke="none" 
	d="
M158.941879,90.888741 
	C159.636978,93.007210 160.332062,95.125679 161.020874,97.620560 
	C155.416794,92.325790 153.892319,84.844887 153.214355,77.527725 
	C152.306717,67.731590 152.569992,57.803448 156.789368,48.330124 
	C157.545364,48.527779 157.793625,48.767338 157.952454,49.384705 
	C154.695068,60.006504 153.794388,70.388062 155.970367,80.956291 
	C156.009323,81.417633 156.048248,81.878975 156.159531,83.006241 
	C156.764481,84.859390 157.297089,86.046616 157.829681,87.233841 
	C157.829681,87.233849 157.842926,87.607956 157.911133,88.108444 
	C158.300171,89.368866 158.621033,90.128799 158.941879,90.888741 
z"/>
<path fill="#2998A0" opacity="1.000000" stroke="none" 
	d="
M273.071014,28.941795 
	C273.038330,28.500069 273.005676,28.058336 272.997131,27.285244 
	C277.931976,32.474327 282.931122,37.921749 287.632935,43.614742 
	C288.173798,44.269608 287.516998,46.819908 286.631226,47.594185 
	C282.126709,51.531700 277.363861,55.173672 272.391235,58.575714 
	C272.390045,57.492184 272.689087,56.752075 272.988159,56.011967 
	C272.988159,56.011967 273.017151,56.016876 273.202484,55.864609 
	C273.624634,55.507671 273.822906,55.270741 273.982666,55.001556 
	C273.982666,55.001556 274.013336,55.002052 274.302246,54.915779 
	C275.386780,54.230103 276.182373,53.630695 276.977966,53.031292 
	C276.977966,53.031292 277.020355,53.013420 277.305847,52.819550 
	C286.765259,44.854298 286.765259,44.854298 281.662231,37.848560 
	C281.364777,37.500160 281.153351,37.351803 280.909943,37.248985 
	C280.909943,37.248985 280.512726,37.092785 280.188293,36.704453 
	C277.599579,33.858013 275.335297,31.399904 273.071014,28.941795 
z"/>
<path fill="#219AA6" opacity="1.000000" stroke="none" 
	d="
M211.957443,125.996071 
	C220.407135,129.203415 228.891617,132.324066 237.277496,135.690384 
	C238.979340,136.373550 240.309189,137.983383 241.907089,139.487183 
	C229.891312,135.257217 217.778976,130.706085 205.335480,125.812798 
	C205.004333,125.470657 205.011246,125.104980 205.403381,125.089317 
	C207.849487,125.381126 209.903473,125.688599 211.957443,125.996071 
z"/>
<path fill="#48A9AB" opacity="1.000000" stroke="none" 
	d="
M177.535645,7.099936 
	C175.547791,7.451481 173.096817,7.961044 170.644714,7.966640 
	C143.080002,8.029536 115.515129,8.014945 87.476746,8.017659 
	C87.003189,8.014142 86.981682,8.009135 86.991142,7.802446 
	C87.000603,7.595757 87.006989,7.181996 87.006989,7.181996 
	C117.028664,7.129295 147.050339,7.076594 177.535645,7.099936 
z"/>
<path fill="#2796A0" opacity="1.000000" stroke="none" 
	d="
M114.431595,46.926388 
	C114.231392,46.382496 114.499054,45.908360 114.894073,45.192963 
	C127.308624,44.912907 139.595825,44.874119 152.532684,44.777199 
	C153.431732,44.579868 153.667191,44.420109 153.888687,44.239799 
	C154.341064,44.262711 154.793427,44.285625 155.597717,44.633415 
	C155.961655,45.579166 155.973694,46.200039 155.985718,46.820915 
	C142.290298,46.879326 128.594879,46.937737 114.431595,46.926388 
z"/>
<path fill="#289BA8" opacity="1.000000" stroke="none" 
	d="
M272.262512,112.972946 
	C270.993622,113.126564 269.383026,113.366592 268.141632,112.799065 
	C258.963837,108.603226 249.856964,104.251991 240.738190,99.927696 
	C240.152328,99.649872 239.653137,99.189316 238.909729,98.529816 
	C245.681183,100.578865 252.799271,102.566322 259.580994,105.367989 
	C264.003998,107.195244 267.938446,110.205246 272.262512,112.972946 
z"/>
<path fill="#26A2AA" opacity="1.000000" stroke="none" 
	d="
M230.138519,48.361015 
	C230.752762,47.995384 231.556854,47.959702 232.765198,47.892776 
	C236.892792,49.160339 240.616104,50.459148 244.949783,52.064388 
	C249.662125,54.682476 253.764130,56.994133 257.866119,59.305794 
	C258.758392,60.410656 259.650696,61.515522 260.888794,63.079910 
	C261.551514,64.036415 261.868469,64.533401 262.185425,65.030396 
	C260.078918,64.111290 257.717865,63.539173 255.909897,62.213070 
	C248.033783,56.436184 240.140274,50.775158 230.138519,48.361015 
z"/>
<path fill="#2F98A0" opacity="1.000000" stroke="none" 
	d="
M197.007324,179.252960 
	C196.728592,178.588791 196.492050,178.112442 196.128052,177.402740 
	C196.818405,177.146683 197.756241,176.847580 198.435989,177.142792 
	C208.589279,181.552261 219.305984,182.214996 230.622955,182.441467 
	C231.066071,183.221344 231.042847,183.613159 231.019623,184.004974 
	C229.619812,184.049408 228.220016,184.093842 226.162476,184.150482 
	C225.504761,184.162659 225.028442,184.197723 225.028442,184.197723 
	C222.646194,184.160400 220.263931,184.123093 217.091049,183.883026 
	C213.893539,183.419052 211.486664,183.157822 209.079788,182.896606 
	C209.079788,182.896606 209.022125,182.900772 208.888321,182.752975 
	C208.539932,182.392807 208.294922,182.224823 208.019485,182.101242 
	C206.940140,182.098450 205.860794,182.095657 204.069046,181.928574 
	C201.279053,181.115707 199.201477,180.467117 197.123886,179.818542 
	C197.123886,179.818542 197.049484,179.440781 197.007324,179.252960 
z"/>
<path fill="#2193A0" opacity="1.000000" stroke="none" 
	d="
M205.011246,125.104980 
	C205.011246,125.104980 205.004333,125.470657 205.001312,125.653503 
	C194.874268,123.728333 185.520035,119.865982 177.090714,113.309982 
	C181.415924,114.948105 185.848373,116.927650 190.293381,118.878563 
	C191.932602,119.598022 193.601410,120.250046 195.903290,121.212212 
	C199.370300,122.696060 202.190781,123.900520 205.011246,125.104980 
z"/>
<path fill="#39A3A9" opacity="1.000000" stroke="none" 
	d="
M233.147766,96.805176 
	C225.740097,94.835304 218.152664,92.595177 210.301697,89.878662 
	C210.040512,89.235405 210.042877,89.068535 210.045258,88.901665 
	C217.686172,91.446075 225.327087,93.990494 233.147766,96.805176 
z"/>
<path fill="#2193A0" opacity="1.000000" stroke="none" 
	d="
M161.015289,98.344467 
	C161.642883,98.149147 162.480484,98.106979 162.887939,98.505081 
	C167.575974,103.085556 172.198730,107.732834 176.929504,112.691376 
	C169.657150,110.516960 164.953278,105.043015 161.015289,98.344467 
z"/>
<path fill="#12B6C6" opacity="1.000000" stroke="none" 
	d="
M231.365448,184.171661 
	C231.042847,183.613159 231.066071,183.221344 231.086670,182.535095 
	C231.084045,182.240646 231.489059,182.113937 231.694153,182.061874 
	C236.338638,180.727509 240.778030,179.445206 245.540649,178.035889 
	C243.214249,183.212387 237.996368,185.582855 231.365448,184.171661 
z"/>
<path fill="#1197A9" opacity="1.000000" stroke="none" 
	d="
M192.226105,216.424225 
	C191.935638,215.558136 191.864578,215.019180 191.843643,214.284119 
	C198.921112,215.442673 205.948471,216.797348 213.384094,218.222931 
	C211.751038,218.529831 209.709732,218.765854 207.255615,219.011292 
	C202.043716,218.264252 197.244614,217.507812 192.226105,216.424225 
z"/>
<path fill="#46A8AC" opacity="1.000000" stroke="none" 
	d="
M217.038544,8.170212 
	C206.756760,8.113902 196.474762,8.079647 186.193390,7.980565 
	C184.383453,7.963122 182.576126,7.674405 180.389771,7.349221 
	C192.528427,7.197813 205.044907,7.208150 217.546509,7.646594 
	C217.367264,8.106537 217.202911,8.138374 217.038544,8.170212 
z"/>
<path fill="#0CBBC4" opacity="1.000000" stroke="none" 
	d="
M262.557465,65.021111 
	C261.868469,64.533401 261.551514,64.036415 261.143982,63.256577 
	C263.362000,61.639862 265.690735,60.339237 267.972076,58.960220 
	C269.444611,58.070091 270.847717,57.065083 272.635040,56.061768 
	C272.689087,56.752075 272.390045,57.492184 272.031555,58.526466 
	C268.957947,60.884369 265.943726,62.948101 262.557465,65.021111 
z"/>
<path fill="#4198A1" opacity="1.000000" stroke="none" 
	d="
M14.987615,8.318869 
	C13.929768,8.324305 12.871922,8.329740 11.248066,8.213827 
	C10.682057,8.092480 10.332009,7.829301 10.332009,7.829301 
	C12.370133,7.477201 14.408549,6.825354 16.446327,6.827347 
	C23.489149,6.834237 30.531748,7.068932 37.543911,7.656773 
	C37.333881,8.131577 37.154377,8.166508 36.511246,8.159967 
	C29.027620,8.185287 22.007618,8.252078 14.987615,8.318869 
z"/>
<path fill="#19AAB3" opacity="1.000000" stroke="none" 
	d="
M8.522621,8.879034 
	C8.402889,14.028145 7.921688,19.187162 7.245890,24.286842 
	C6.699838,21.519127 6.348383,18.810745 5.996929,16.102365 
	C6.036110,14.626583 6.075292,13.150801 6.056651,11.106556 
	C5.998828,10.538093 5.935145,10.255405 5.935145,10.255405 
	C5.935145,10.255405 6.197032,10.073628 6.472980,10.071962 
	C6.748927,10.070297 6.982918,9.688464 6.982918,9.688464 
	C7.375662,9.421956 7.768407,9.155448 8.522621,8.879034 
z"/>
<path fill="#128997" opacity="1.000000" stroke="none" 
	d="
M5.677901,16.257326 
	C6.348383,18.810745 6.699838,21.519127 7.101309,24.660006 
	C7.123641,27.117104 7.095957,29.141703 7.029082,32.031544 
	C7.005131,34.906693 7.020369,36.916595 7.035607,38.926502 
	C6.966211,39.673565 6.896816,40.420624 6.623592,41.161903 
	C6.270953,39.347633 6.078373,37.541481 5.981605,35.730213 
	C5.700346,30.465729 5.457478,25.199190 5.199550,19.933458 
	C5.252658,18.759735 5.305766,17.586010 5.677901,16.257326 
z"/>
<path fill="#17BBC5" opacity="1.000000" stroke="none" 
	d="
M36.974869,8.201439 
	C37.154377,8.166508 37.333881,8.131577 37.777832,8.024092 
	C39.132671,8.003182 40.223076,8.054828 41.717949,8.188976 
	C39.789597,8.852500 37.466866,9.870884 35.121883,9.924982 
	C29.980471,10.043594 24.827785,9.673689 19.763321,9.321566 
	C25.556248,8.827059 31.265558,8.514249 36.974869,8.201439 
z"/>
<path fill="#2F8694" opacity="1.000000" stroke="none" 
	d="
M5.119848,20.403473 
	C5.457478,25.199190 5.700346,30.465729 5.981605,35.730213 
	C6.078373,37.541481 6.270953,39.347633 6.551965,41.530224 
	C6.723783,42.093212 6.763401,42.282101 6.857652,42.755417 
	C6.912285,43.039845 6.857748,43.064697 6.726105,43.287170 
	C6.470432,43.948299 6.346402,44.386955 6.222371,44.825607 
	C6.187429,45.046230 6.152488,45.266850 6.057113,45.817627 
	C5.659977,42.818668 5.131301,39.495316 5.031261,36.159111 
	C4.878615,31.068569 5.022288,25.969141 5.119848,20.403473 
z"/>
<path fill="#17BBC5" opacity="1.000000" stroke="none" 
	d="
M74.650887,8.190641 
	C70.304901,8.666186 65.496536,9.059797 60.662910,9.256729 
	C61.761799,8.702135 62.885960,8.344223 64.010117,7.986310 
	C67.402916,8.027110 70.795715,8.067910 74.650887,8.190641 
z"/>
<path fill="#289BA8" opacity="1.000000" stroke="none" 
	d="
M281.000916,121.653275 
	C278.220062,119.419212 275.418274,116.830368 272.668732,113.889740 
	C275.473969,116.124802 278.226959,118.711647 281.000916,121.653275 
z"/>
<path fill="#19AAB3" opacity="1.000000" stroke="none" 
	d="
M233.954773,10.089004 
	C233.705948,9.910199 233.467590,9.718385 233.075134,9.351888 
	C236.656906,7.238589 239.473267,10.402516 242.689499,11.257306 
	C241.419846,12.003626 240.220367,12.473408 239.020905,12.943192 
	C238.505875,12.723032 237.990829,12.502872 237.039703,11.900970 
	C235.720657,11.042486 234.837723,10.565743 233.954773,10.089004 
z"/>
<path fill="#369DA7" opacity="1.000000" stroke="none" 
	d="
M209.875336,88.594376 
	C210.042877,89.068535 210.040512,89.235405 210.031982,89.651962 
	C207.407303,88.476646 204.788803,87.051643 202.071655,85.297523 
	C204.550446,86.074638 207.127930,87.180855 209.875336,88.594376 
z"/>
<path fill="#289BA8" opacity="1.000000" stroke="none" 
	d="
M281.160217,124.842590 
	C281.091339,124.127251 281.022491,123.411911 280.973694,122.337692 
	C282.661377,124.058815 284.329010,126.138802 286.038910,128.570374 
	C286.081146,128.921982 285.813232,129.166870 285.432678,129.095123 
	C283.754852,127.629768 282.457520,126.236176 281.160217,124.842590 
z"/>
<path fill="#17BBC5" opacity="1.000000" stroke="none" 
	d="
M87.009094,8.025344 
	C89.725296,8.385472 92.435600,8.734399 95.579063,9.105577 
	C91.919342,9.248894 87.826454,9.369960 83.372414,9.104622 
	C83.011253,8.718218 83.028763,8.224874 83.028763,8.224874 
	C83.762939,8.168621 84.497116,8.112369 85.852470,8.033699 
	C86.642998,8.010567 86.812340,8.009851 86.981682,8.009135 
	C86.981682,8.009135 87.003189,8.014142 87.009094,8.025344 
z"/>
<path fill="#17BBC5" opacity="1.000000" stroke="none" 
	d="
M216.662094,8.318163 
	C217.202911,8.138374 217.367264,8.106537 217.775558,8.015728 
	C218.317123,8.030057 218.618561,8.080741 219.137512,8.201578 
	C215.150879,8.670803 210.950562,9.047256 206.374146,9.272676 
	C209.427261,8.903134 212.856461,8.684625 216.662094,8.318163 
z"/>
<path fill="#369DA7" opacity="1.000000" stroke="none" 
	d="
M193.046326,73.566223 
	C190.967056,70.973061 190.458130,67.815773 192.629868,64.189560 
	C192.897903,66.960426 192.962936,70.034416 193.046326,73.566223 
z"/>
<path fill="#3A9DA7" opacity="1.000000" stroke="none" 
	d="
M267.902344,21.692774 
	C267.848114,22.172836 267.693024,22.323622 267.005066,22.468561 
	C266.285095,22.379360 266.097961,22.296005 265.910858,22.212648 
	C265.910858,22.212648 265.868286,22.161722 265.617584,21.912277 
	C263.775208,20.258734 262.183533,18.854635 260.714966,17.313635 
	C260.838135,17.176735 261.084351,16.902836 261.084351,16.902836 
	C263.323425,18.389723 265.562469,19.876610 267.902344,21.692774 
z"/>
<path fill="#19AAB3" opacity="1.000000" stroke="none" 
	d="
M246.996353,13.173816 
	C246.545212,13.171697 246.094086,13.169578 245.254761,12.686880 
	C244.834274,11.896239 244.801987,11.586175 244.769684,11.276111 
	C247.306030,11.872575 249.842361,12.469039 252.720215,13.453077 
	C253.018814,14.257078 252.975906,14.673502 252.932983,15.089926 
	C252.495682,15.076755 252.058365,15.063583 251.145264,14.868182 
	C250.464035,14.487404 250.244781,14.305520 250.011719,14.140300 
	C249.569702,14.109443 249.127701,14.078587 248.192230,13.870605 
	C247.476898,13.503657 247.242767,13.330436 246.996353,13.173816 
z"/>
<path fill="#3A9DA7" opacity="1.000000" stroke="none" 
	d="
M252.956360,15.117130 
	C252.975906,14.673502 253.018814,14.257078 253.100250,13.529078 
	C255.674118,14.239894 258.209442,15.262283 260.914551,16.593754 
	C261.084351,16.902836 260.838135,17.176735 260.366241,17.237232 
	C258.940216,17.178110 257.986115,17.058491 257.031982,16.938873 
	C256.536530,16.674713 256.041077,16.410553 255.051605,15.914438 
	C254.046814,15.521561 253.536087,15.360636 253.025345,15.199712 
	C253.025345,15.199712 252.979736,15.144334 252.956360,15.117130 
z"/>
<path fill="#22A0AA" opacity="1.000000" stroke="none" 
	d="
M156.225861,46.935066 
	C155.973694,46.200039 155.961655,45.579166 155.936737,44.654804 
	C156.928345,45.686283 157.932831,47.021244 158.727478,48.692638 
	C158.517639,49.029068 158.041901,49.006897 158.041901,49.006897 
	C157.793625,48.767338 157.545364,48.527779 157.102448,48.117729 
	C156.760544,47.647896 156.613266,47.348557 156.225861,46.935066 
z"/>
<path fill="#10BBC4" opacity="1.000000" stroke="none" 
	d="
M244.623322,11.212217 
	C244.801987,11.586175 244.834274,11.896239 244.916702,12.671968 
	C243.125290,13.156017 241.283737,13.174403 239.231552,13.067989 
	C240.220367,12.473408 241.419846,12.003626 243.078796,11.375778 
	C243.840118,11.097723 244.153015,11.074594 244.623322,11.212217 
z"/>
<path fill="#19AAB3" opacity="1.000000" stroke="none" 
	d="
M230.954086,8.684799 
	C229.271774,9.083180 227.438538,9.153876 225.265259,8.963465 
	C224.925201,8.702359 224.950806,8.223571 224.950806,8.223571 
	C226.901596,8.268085 228.852371,8.312599 230.954086,8.684799 
z"/>
<path fill="#19AAB3" opacity="1.000000" stroke="none" 
	d="
M82.715462,8.065774 
	C83.028763,8.224874 83.011253,8.718218 82.990891,8.966045 
	C81.822945,8.945802 80.675369,8.677731 79.221252,8.229252 
	C80.077187,8.001454 81.239677,7.954064 82.715462,8.065774 
z"/>
<path fill="#19AAB3" opacity="1.000000" stroke="none" 
	d="
M63.864128,7.673355 
	C62.885960,8.344223 61.761799,8.702135 60.276928,9.107786 
	C59.916214,9.155525 59.855606,8.699345 59.839329,8.469700 
	C61.121414,7.946836 62.419777,7.653618 63.864128,7.673355 
z"/>
<path fill="#19AAB3" opacity="1.000000" stroke="none" 
	d="
M56.958549,7.745442 
	C56.200699,8.162911 55.295853,8.262879 54.142990,8.212511 
	C54.867165,7.850763 55.839355,7.639352 56.958549,7.745442 
z"/>
<path fill="#369DA7" opacity="1.000000" stroke="none" 
	d="
M195.025757,77.658081 
	C194.386871,76.881058 193.700821,75.764931 193.024780,74.294395 
	C193.682709,75.066322 194.330658,76.192650 195.025757,77.658081 
z"/>
<path fill="#10BBC4" opacity="1.000000" stroke="none" 
	d="
M224.674744,8.162443 
	C224.950806,8.223571 224.925201,8.702359 224.912262,8.942859 
	C224.289368,9.009192 223.679398,8.835025 222.894501,8.476732 
	C223.279266,8.228842 223.838989,8.165079 224.674744,8.162443 
z"/>
<path fill="#2F98A0" opacity="1.000000" stroke="none" 
	d="
M192.984360,175.767670 
	C192.162659,175.618484 191.207535,175.158127 190.053253,174.441956 
	C190.853043,174.609604 191.852005,175.033051 192.984360,175.767670 
z"/>
<path fill="#369DA7" opacity="1.000000" stroke="none" 
	d="
M199.328735,83.418961 
	C198.775925,82.896309 198.472656,82.285027 198.098312,81.339828 
	C198.632217,81.488869 199.237213,81.971809 199.924530,82.736954 
	C199.863998,83.122879 199.721146,83.226593 199.328735,83.418961 
z"/>
<path fill="#3A9DA7" opacity="1.000000" stroke="none" 
	d="
M268.932739,25.196541 
	C268.907623,24.706837 268.882477,24.217136 268.915771,23.364042 
	C269.593903,23.463068 270.213593,23.925488 270.817139,24.800085 
	C270.800964,25.212263 270.539429,25.487850 270.276550,25.417341 
	C269.653351,25.296734 269.293030,25.246637 268.932739,25.196541 
z"/>
<path fill="#19AAB3" opacity="1.000000" stroke="none" 
	d="
M10.047691,7.947162 
	C10.332009,7.829301 10.682057,8.092480 10.851685,8.231783 
	C10.496857,8.543005 9.972402,8.714923 9.167945,8.883629 
	C9.179753,8.608620 9.471562,8.336822 10.047691,7.947162 
z"/>
<path fill="#369DA7" opacity="1.000000" stroke="none" 
	d="
M193.275574,63.070896 
	C193.142090,62.639309 193.315796,62.023544 193.649292,61.126999 
	C193.733643,61.526386 193.658188,62.206554 193.275574,63.070896 
z"/>
<path fill="#19AAB3" opacity="1.000000" stroke="none" 
	d="
M52.972019,7.761333 
	C52.861290,8.018231 52.680973,8.026853 52.229424,8.022417 
	C52.272945,7.843925 52.587688,7.678490 52.972019,7.761333 
z"/>
<path fill="#19AAB3" opacity="1.000000" stroke="none" 
	d="
M86.991142,7.802446 
	C86.812340,8.009851 86.642998,8.010567 86.219894,7.998753 
	C86.140671,7.703041 86.315208,7.419859 86.748367,7.159337 
	C87.006989,7.181996 87.000603,7.595757 86.991142,7.802446 
z"/>
<path fill="#2F98A0" opacity="1.000000" stroke="none" 
	d="
M185.999664,171.703613 
	C185.788574,171.841614 185.515854,171.670822 185.080231,171.306564 
	C185.235809,171.241745 185.576035,171.335648 185.999664,171.703613 
z"/>
<path fill="#2F98A0" opacity="1.000000" stroke="none" 
	d="
M187.019531,172.724808 
	C186.855362,172.761948 186.591003,172.544571 186.166214,172.125931 
	C186.310303,172.106537 186.614838,172.288422 187.019531,172.724808 
z"/>
<path fill="#369DA7" opacity="1.000000" stroke="none" 
	d="
M201.975220,84.756294 
	C201.750717,84.834320 201.469910,84.641800 201.091461,84.208801 
	C201.302170,84.140793 201.610550,84.313271 201.975220,84.756294 
z"/>
<path fill="#369DA7" opacity="1.000000" stroke="none" 
	d="
M200.970947,83.738388 
	C200.746490,83.827988 200.461273,83.650818 200.077850,83.235397 
	C200.289825,83.155319 200.600006,83.313477 200.970947,83.738388 
z"/>
<path fill="#128997" opacity="1.000000" stroke="none" 
	d="
M6.842423,9.640339 
	C6.982918,9.688464 6.748927,10.070297 6.632374,10.071363 
	C6.397512,9.842580 6.459548,9.682508 6.842423,9.640339 
z"/>
<path fill="#369DA7" opacity="1.000000" stroke="none" 
	d="
M197.937790,80.707657 
	C197.738876,80.749947 197.478134,80.528862 197.110519,80.071243 
	C197.294418,80.037895 197.585190,80.241089 197.937790,80.707657 
z"/>
<path fill="#369DA7" opacity="1.000000" stroke="none" 
	d="
M196.053543,78.749565 
	C195.880005,78.795334 195.595825,78.578941 195.151093,78.146423 
	C195.307999,78.115997 195.625443,78.301704 196.053543,78.749565 
z"/>
<path fill="#128997" opacity="1.000000" stroke="none" 
	d="
M5.740777,10.228321 
	C5.935145,10.255405 5.998828,10.538093 5.952252,10.674973 
	C5.696984,10.704250 5.488290,10.596648 5.279597,10.489045 
	C5.368534,10.393108 5.457471,10.297173 5.740777,10.228321 
z"/>
<path fill="#26A2AA" opacity="1.000000" stroke="none" 
	d="
M229.273422,47.856274 
	C229.310715,47.698082 229.560654,47.736996 229.888611,47.974037 
	C229.984512,48.065178 229.503937,47.946396 229.273422,47.856274 
z"/>
<path fill="#3A9DA7" opacity="1.000000" stroke="none" 
	d="
M272.992554,26.741890 
	C272.771240,26.825497 272.486023,26.635595 272.088379,26.210449 
	C272.293549,26.139593 272.611084,26.303988 272.992554,26.741890 
z"/>
<path fill="#3A9DA7" opacity="1.000000" stroke="none" 
	d="
M271.966675,25.753704 
	C271.856171,26.138367 271.691071,26.266754 271.154175,26.241062 
	C270.701416,25.887272 270.620422,25.687561 270.539429,25.487850 
	C270.539429,25.487850 270.800964,25.212263 270.931824,25.074526 
	C271.345795,25.123669 271.628967,25.310547 271.966675,25.753704 
z"/>
<path fill="#3A9DA7" opacity="1.000000" stroke="none" 
	d="
M268.947052,22.757687 
	C268.708740,22.849642 268.420074,22.674578 268.055786,22.249609 
	C268.285675,22.163357 268.591187,22.327011 268.947052,22.757687 
z"/>
<path fill="#0BBBD3" opacity="1.000000" stroke="none" 
	d="
M205.403381,125.089317 
	C202.190781,123.900520 199.370300,122.696060 196.263428,121.283920 
	C201.112442,117.060265 206.092438,120.591095 211.061050,121.589752 
	C211.640579,121.706230 211.778503,124.019760 212.039307,125.655411 
	C209.903473,125.688599 207.849487,125.381126 205.403381,125.089317 
z"/>
<path fill="#0CBBC4" opacity="1.000000" stroke="none" 
	d="
M281.780243,38.003067 
	C286.765259,44.854298 286.765259,44.854298 277.311951,52.797371 
	C277.489471,49.320690 277.823669,45.650425 278.468323,42.035522 
	C278.701843,40.725986 279.678040,39.548893 280.822266,38.139091 
	C281.329224,37.966820 281.780243,38.003067 281.780243,38.003067 
z"/>
<path fill="#13B7C4" opacity="1.000000" stroke="none" 
	d="
M157.952454,49.384705 
	C158.041901,49.006897 158.517639,49.029068 158.755096,49.045349 
	C158.951340,50.967934 159.460800,53.105862 158.773300,54.740314 
	C155.841019,61.711460 155.171753,68.701782 157.149216,76.036598 
	C157.516434,77.398705 156.762436,79.063087 156.248138,80.772125 
	C153.794388,70.388062 154.695068,60.006504 157.952454,49.384705 
z"/>
<path fill="#17BBC5" opacity="1.000000" stroke="none" 
	d="
M98.367523,9.279978 
	C111.348541,9.109755 124.710533,9.090983 138.540787,9.091966 
	C134.389618,9.410533 129.769958,9.958785 125.150795,9.954672 
	C116.349884,9.946836 107.549255,9.623673 98.367523,9.279978 
z"/>
<path fill="#0CBBC4" opacity="1.000000" stroke="none" 
	d="
M257.722382,58.977322 
	C253.764130,56.994133 249.662125,54.682476 245.289719,52.168190 
	C251.147491,48.354900 252.362473,56.001057 256.488403,57.029655 
	C256.957245,57.146530 257.220215,58.089130 257.722382,58.977322 
z"/>
<path fill="#12B6C6" opacity="1.000000" stroke="none" 
	d="
M197.114532,180.217941 
	C199.201477,180.467117 201.279053,181.115707 203.664993,181.954193 
	C202.370987,182.955154 200.821594,184.085114 199.131165,184.365875 
	C198.675903,184.441483 197.792206,181.937302 197.114532,180.217941 
z"/>
<path fill="#0CB7C4" opacity="1.000000" stroke="none" 
	d="
M272.947205,29.261580 
	C275.335297,31.399904 277.599579,33.858013 279.988037,36.630684 
	C277.417603,34.752895 271.574493,35.676987 272.947205,29.261580 
z"/>
<path fill="#17BBC5" opacity="1.000000" stroke="none" 
	d="
M146.371063,9.264435 
	C154.014618,9.098823 162.038315,9.086722 170.528748,9.093985 
	C162.914078,9.214880 154.832642,9.316412 146.371063,9.264435 
z"/>
<path fill="#17BBC5" opacity="1.000000" stroke="none" 
	d="
M178.384079,9.266628 
	C185.694168,9.103081 193.382950,9.092539 201.539597,9.103659 
	C194.259232,9.223425 186.511002,9.321530 178.384079,9.266628 
z"/>
<path fill="#10BCCA" opacity="1.000000" stroke="none" 
	d="
M281.128906,125.260147 
	C282.457520,126.236176 283.754852,127.629768 285.298645,129.217499 
	C285.708221,130.349472 285.871277,131.287338 286.068085,132.582077 
	C281.878510,132.279541 280.711212,129.513992 281.128906,125.260147 
z"/>
<path fill="#10B4C0" opacity="1.000000" stroke="none" 
	d="
M257.173340,17.248810 
	C257.986115,17.058491 258.940216,17.178110 260.243103,17.374132 
	C262.183533,18.854635 263.775208,20.258734 265.596741,21.886475 
	C261.744080,22.921724 258.746429,21.704544 257.173340,17.248810 
z"/>
<path fill="#19AAB3" opacity="1.000000" stroke="none" 
	d="
M36.511246,8.159967 
	C31.265558,8.514249 25.556248,8.827059 19.369591,9.183083 
	C17.791920,9.017175 16.691599,8.808053 15.289446,8.458900 
	C22.007618,8.252078 29.027620,8.185287 36.511246,8.159967 
z"/>
<path fill="#12B6C6" opacity="1.000000" stroke="none" 
	d="
M209.270660,183.196381 
	C211.486664,183.157822 213.893539,183.419052 216.644867,183.869354 
	C214.480072,183.871033 211.970810,183.683609 209.270660,183.196381 
z"/>
<path fill="#19AAB3" opacity="1.000000" stroke="none" 
	d="
M7.187149,38.605370 
	C7.020369,36.916595 7.005131,34.906693 7.026855,32.467796 
	C7.155443,34.120613 7.247067,36.202427 7.187149,38.605370 
z"/>
<path fill="#10B4C0" opacity="1.000000" stroke="none" 
	d="
M270.276550,25.417341 
	C270.620422,25.687561 270.701416,25.887272 270.882690,26.398239 
	C270.309479,26.370373 269.635925,26.031248 268.947571,25.444332 
	C269.293030,25.246637 269.653351,25.296734 270.276550,25.417341 
z"/>
<path fill="#13B7C4" opacity="1.000000" stroke="none" 
	d="
M157.841873,86.875847 
	C157.297089,86.046616 156.764481,84.859390 156.197449,83.351433 
	C156.726715,84.193085 157.290390,85.355469 157.841873,86.875847 
z"/>
<path fill="#0CBBC4" opacity="1.000000" stroke="none" 
	d="
M276.669861,53.086273 
	C276.182373,53.630695 275.386780,54.230103 274.293213,54.903278 
	C274.784119,54.365116 275.572968,53.753185 276.669861,53.086273 
z"/>
<path fill="#10BBC4" opacity="1.000000" stroke="none" 
	d="
M234.131927,10.343273 
	C234.837723,10.565743 235.720657,11.042486 236.800354,11.754574 
	C236.101105,11.525795 235.205078,11.061670 234.131927,10.343273 
z"/>
<path fill="#10B4C0" opacity="1.000000" stroke="none" 
	d="
M253.117462,15.384226 
	C253.536087,15.360636 254.046814,15.521561 254.780899,15.835999 
	C254.406021,15.849255 253.807816,15.708998 253.117462,15.384226 
z"/>
<path fill="#13B7C4" opacity="1.000000" stroke="none" 
	d="
M158.904816,90.580917 
	C158.621033,90.128799 158.300171,89.368866 157.944275,88.292664 
	C158.228729,88.741959 158.548233,89.507523 158.904816,90.580917 
z"/>
<path fill="#10B4C0" opacity="1.000000" stroke="none" 
	d="
M265.964294,22.328869 
	C266.097961,22.296005 266.285095,22.379360 266.726135,22.634220 
	C266.659271,22.685513 266.338470,22.565300 265.964294,22.328869 
z"/>
<path fill="#12B6C6" opacity="1.000000" stroke="none" 
	d="
M208.177704,182.255646 
	C208.294922,182.224823 208.539932,182.392807 208.893433,182.781433 
	C208.788727,182.789749 208.556580,182.607208 208.177704,182.255646 
z"/>
<path fill="#12B6C6" opacity="1.000000" stroke="none" 
	d="
M225.145874,184.231750 
	C225.028442,184.197723 225.504761,184.162659 225.742828,184.170837 
	C225.980911,184.179016 225.627899,184.272385 225.627899,184.272385 
	C225.627899,184.272385 225.263290,184.265778 225.145874,184.231750 
z"/>
<path fill="#0CBBC4" opacity="1.000000" stroke="none" 
	d="
M273.810181,55.154922 
	C273.822906,55.270741 273.624634,55.507671 273.200806,55.849991 
	C273.206299,55.746979 273.414246,55.520527 273.810181,55.154922 
z"/>
<path fill="#10BBC4" opacity="1.000000" stroke="none" 
	d="
M247.159943,13.318237 
	C247.242767,13.330436 247.476898,13.503657 247.861176,13.841434 
	C247.780914,13.826196 247.547562,13.650620 247.159943,13.318237 
z"/>
<path fill="#22A0AA" opacity="1.000000" stroke="none" 
	d="
M153.695480,44.330944 
	C153.667191,44.420109 153.431732,44.579868 152.987030,44.816513 
	C153.009094,44.721806 153.245926,44.557854 153.695480,44.330944 
z"/>
<path fill="#10BBC4" opacity="1.000000" stroke="none" 
	d="
M250.164001,14.289822 
	C250.244781,14.305520 250.464035,14.487404 250.818237,14.839863 
	C250.741776,14.818725 250.524872,14.633916 250.164001,14.289822 
z"/>
<path fill="#0CB7C4" opacity="1.000000" stroke="none" 
	d="
M281.662231,37.848560 
	C281.780243,38.003067 281.329224,37.966820 281.102692,37.943123 
	C280.876160,37.919430 280.896179,37.582348 280.903076,37.415665 
	C281.153351,37.351803 281.364777,37.500160 281.662231,37.848560 
z"/>
<path fill="#128997" opacity="1.000000" stroke="none" 
	d="
M6.341984,44.631851 
	C6.346402,44.386955 6.470432,43.948299 6.715772,43.315300 
	C6.711920,43.560001 6.586759,43.999050 6.341984,44.631851 
z"/>
</svg>